<svg width="24" height="24" viewBox="0 0 24 24" fill="none" xmlns="http://www.w3.org/2000/svg">
<g id="3d-square 1">
<path id="Vector" d="M15 22.75H9C3.57 22.75 1.25 20.43 1.25 15V8.99999C1.25 3.56999 3.57 1.24999 9 1.24999H15C20.43 1.24999 22.75 3.56999 22.75 8.99999V15C22.75 20.43 20.43 22.75 15 22.75ZM9 2.74999C4.39 2.74999 2.75 4.38999 2.75 8.99999V15C2.75 19.61 4.39 21.25 9 21.25H15C19.61 21.25 21.25 19.61 21.25 15V8.99999C21.25 4.38999 19.61 2.74999 15 2.74999H9Z" fill="#1A1A1A"/>
<path id="Vector_2" d="M12.0006 13.0797C11.8706 13.0797 11.7406 13.0497 11.6206 12.9797L6.32061 9.91969C5.96061 9.70969 5.84059 9.24969 6.05059 8.89969C6.26059 8.53969 6.72061 8.41969 7.07061 8.62969L11.9906 11.4797L16.8806 8.64969C17.2406 8.43969 17.7006 8.56969 17.9006 8.91969C18.1006 9.26969 17.9806 9.73969 17.6306 9.93969L12.3706 12.9797C12.2606 13.0397 12.1306 13.0797 12.0006 13.0797Z" fill="#1A1A1A"/>
<path id="Vector_3" d="M12 18.5201C11.59 18.5201 11.25 18.1801 11.25 17.7701V12.3301C11.25 11.9201 11.59 11.5801 12 11.5801C12.41 11.5801 12.75 11.9201 12.75 12.3301V17.7701C12.75 18.1801 12.41 18.5201 12 18.5201Z" fill="#1A1A1A"/>
<path id="Vector_4" d="M12.0002 18.7498C11.4202 18.7498 10.8503 18.6198 10.3903 18.3698L7.19025 16.5898C6.23025 16.0598 5.49023 14.7898 5.49023 13.6898V10.2998C5.49023 9.2098 6.24025 7.93979 7.19025 7.39979L10.3903 5.61979C11.3103 5.10979 12.6902 5.10979 13.6102 5.61979L16.8102 7.39979C17.7702 7.92979 18.5103 9.1998 18.5103 10.2998V13.6898C18.5103 14.7798 17.7602 16.0498 16.8102 16.5898L13.6102 18.3698C13.1502 18.6298 12.5802 18.7498 12.0002 18.7498ZM12.0002 6.74979C11.6702 6.74979 11.3502 6.80979 11.1202 6.93979L7.92026 8.71979C7.43026 8.98979 6.99023 9.74979 6.99023 10.2998V13.6898C6.99023 14.2498 7.43026 14.9998 7.92026 15.2698L11.1202 17.0498C11.5802 17.3098 12.4202 17.3098 12.8802 17.0498L16.0802 15.2698C16.5702 14.9998 17.0103 14.2398 17.0103 13.6898V10.2998C17.0103 9.7398 16.5702 8.98979 16.0802 8.71979L12.8802 6.93979C12.6502 6.80979 12.3302 6.74979 12.0002 6.74979Z" fill="#1A1A1A"/>
</g>
</svg>
