<svg width="24" height="24" viewBox="0 0 24 24" fill="none" xmlns="http://www.w3.org/2000/svg">
<path d="M12 22.7503C11.37 22.7503 10.78 22.5104 10.34 22.0604L8.82001 20.5404C8.70001 20.4204 8.38 20.2904 8.22 20.2904H6.06C4.76 20.2904 3.70999 19.2403 3.70999 17.9403V15.7804C3.70999 15.6204 3.57999 15.3004 3.45999 15.1804L1.94 13.6604C1.5 13.2204 1.25 12.6303 1.25 12.0003C1.25 11.3703 1.49 10.7803 1.94 10.3403L3.45999 8.82027C3.57999 8.70027 3.70999 8.38029 3.70999 8.22029V6.06038C3.70999 4.76038 4.76 3.71028 6.06 3.71028H8.22C8.38 3.71028 8.70001 3.58028 8.82001 3.46028L10.34 1.94026C11.22 1.06026 12.78 1.06026 13.66 1.94026L15.18 3.46028C15.3 3.58028 15.62 3.71028 15.78 3.71028H17.94C19.24 3.71028 20.29 4.76038 20.29 6.06038V8.22029C20.29 8.38029 20.42 8.70027 20.54 8.82027L22.06 10.3403C22.5 10.7803 22.75 11.3703 22.75 12.0003C22.75 12.6303 22.51 13.2204 22.06 13.6604L20.54 15.1804C20.42 15.3004 20.29 15.6204 20.29 15.7804V17.9403C20.29 19.2403 19.24 20.2904 17.94 20.2904H15.78C15.62 20.2904 15.3 20.4204 15.18 20.5404L13.66 22.0604C13.22 22.5104 12.63 22.7503 12 22.7503ZM4.51999 14.1203C4.91999 14.5203 5.20999 15.2204 5.20999 15.7804V17.9403C5.20999 18.4103 5.59 18.7904 6.06 18.7904H8.22C8.78 18.7904 9.48001 19.0803 9.88 19.4803L11.4 21.0003C11.72 21.3203 12.28 21.3203 12.6 21.0003L14.12 19.4803C14.52 19.0803 15.22 18.7904 15.78 18.7904H17.94C18.41 18.7904 18.79 18.4103 18.79 17.9403V15.7804C18.79 15.2204 19.08 14.5203 19.48 14.1203L21 12.6003C21.16 12.4403 21.25 12.2303 21.25 12.0003C21.25 11.7703 21.16 11.5604 21 11.4004L19.48 9.88033C19.08 9.48033 18.79 8.78029 18.79 8.22029V6.06038C18.79 5.59038 18.41 5.21028 17.94 5.21028H15.78C15.22 5.21028 14.52 4.92034 14.12 4.52034L12.6 3.00032C12.28 2.68032 11.72 2.68032 11.4 3.00032L9.88 4.52034C9.48001 4.92034 8.78 5.21028 8.22 5.21028H6.06C5.59 5.21028 5.20999 5.59038 5.20999 6.06038V8.22029C5.20999 8.78029 4.91999 9.48033 4.51999 9.88033L3 11.4004C2.84 11.5604 2.75 11.7703 2.75 12.0003C2.75 12.2303 2.84 12.4403 3 12.6003L4.51999 14.1203Z" fill="#1A1A1A"/>
<path d="M15.0002 16C14.4402 16 13.9902 15.55 13.9902 15C13.9902 14.45 14.4402 14 14.9902 14C15.5402 14 15.9902 14.45 15.9902 15C15.9902 15.55 15.5502 16 15.0002 16Z" fill="#1A1A1A"/>
<path d="M9.01001 9.99998C8.45001 9.99998 8 9.54998 8 8.99998C8 8.44998 8.45 7.99998 9 7.99998C9.55 7.99998 10 8.44998 10 8.99998C10 9.54998 9.56001 9.99998 9.01001 9.99998Z" fill="#1A1A1A"/>
<path d="M8.99945 15.7495C8.80945 15.7495 8.61945 15.6795 8.46945 15.5295C8.17945 15.2395 8.17945 14.7595 8.46945 14.4695L14.4695 8.46944C14.7595 8.17944 15.2395 8.17944 15.5295 8.46944C15.8195 8.75944 15.8195 9.2395 15.5295 9.5295L9.52945 15.5295C9.37945 15.6795 9.18945 15.7495 8.99945 15.7495Z" fill="#1A1A1A"/>
</svg>
