<svg width="24" height="25" viewBox="0 0 24 25" fill="none" xmlns="http://www.w3.org/2000/svg">
<path d="M9 22.0434H15C20 22.0434 22 20.0434 22 15.0434V9.04343C22 4.04343 20 2.04343 15 2.04343H9C4 2.04343 2 4.04343 2 9.04343V15.0434C2 20.0434 4 22.0434 9 22.0434Z" stroke="#1A1A1A" stroke-width="1.5" stroke-linecap="round" stroke-linejoin="round"/>
<path d="M16.2799 13.6534C15.1499 14.7834 13.5299 15.1334 12.0999 14.6834L9.50995 17.2634C9.32995 17.4534 8.95995 17.5734 8.68995 17.5334L7.48995 17.3734C7.08995 17.3234 6.72995 16.9434 6.66995 16.5534L6.50995 15.3534C6.46995 15.0934 6.59995 14.7234 6.77995 14.5334L9.35995 11.9534C8.91995 10.5234 9.25995 8.90344 10.3899 7.77344C12.0099 6.15344 14.6499 6.15344 16.2799 7.77344C17.8999 9.38344 17.8999 12.0234 16.2799 13.6534Z" stroke="#1A1A1A" stroke-width="1.5" stroke-miterlimit="10" stroke-linecap="round" stroke-linejoin="round"/>
<path d="M10.45 16.3234L9.59998 15.4634" stroke="#1A1A1A" stroke-width="1.5" stroke-miterlimit="10" stroke-linecap="round" stroke-linejoin="round"/>
<path d="M13.3945 10.7434H13.4035" stroke="#1A1A1A" stroke-width="2" stroke-linecap="round" stroke-linejoin="round"/>
</svg>
