<svg width="24" height="24" viewBox="0 0 24 24" fill="none" xmlns="http://www.w3.org/2000/svg">
<path d="M8 22.3199C7.72 22.3199 7.42998 22.2499 7.16998 22.1099C6.59998 21.8099 6.25 21.2099 6.25 20.5699V19.15C3.23 18.84 1.25 16.6199 1.25 13.4399V7.43993C1.25 3.99993 3.56 1.68993 7 1.68993H17C20.44 1.68993 22.75 3.99993 22.75 7.43993V13.4399C22.75 16.8799 20.44 19.1899 17 19.1899H13.23L8.96997 22.03C8.67997 22.22 8.34 22.3199 8 22.3199ZM7 3.17992C4.42 3.17992 2.75 4.84992 2.75 7.42992V13.43C2.75 16.01 4.42 17.68 7 17.68C7.41 17.68 7.75 18.02 7.75 18.43V20.56C7.75 20.69 7.83 20.75 7.88 20.78C7.93001 20.81 8.03001 20.84 8.14001 20.77L12.59 17.81C12.71 17.73 12.86 17.68 13.01 17.68H17.01C19.59 17.68 21.26 16.01 21.26 13.43V7.42992C21.26 4.84992 19.59 3.17992 17.01 3.17992H7Z" fill="#1A1A1A"/>
<path d="M11.9998 12.1099C11.5898 12.1099 11.2498 11.7699 11.2498 11.3599V11.1499C11.2498 9.98989 12.0998 9.41988 12.4198 9.19988C12.7898 8.94988 12.9098 8.77989 12.9098 8.51989C12.9098 8.01989 12.4998 7.60985 11.9998 7.60985C11.4998 7.60985 11.0898 8.01989 11.0898 8.51989C11.0898 8.92989 10.7498 9.26989 10.3398 9.26989C9.92984 9.26989 9.58984 8.92989 9.58984 8.51989C9.58984 7.18989 10.6698 6.10985 11.9998 6.10985C13.3298 6.10985 14.4098 7.18989 14.4098 8.51989C14.4098 9.65989 13.5698 10.2299 13.2598 10.4399C12.8698 10.6999 12.7498 10.8699 12.7498 11.1499V11.3599C12.7498 11.7799 12.4098 12.1099 11.9998 12.1099Z" fill="#1A1A1A"/>
<path d="M12 14.6001C11.58 14.6001 11.25 14.2601 11.25 13.8501C11.25 13.4401 11.59 13.1001 12 13.1001C12.41 13.1001 12.75 13.4401 12.75 13.8501C12.75 14.2601 12.42 14.6001 12 14.6001Z" fill="#1A1A1A"/>
</svg>
